<svg xmlns="http://www.w3.org/2000/svg" viewBox="0 0 336 336" width="30" height="30">
	<style>
		tspan { white-space:pre }
		.shp0 { fill: #292929 } 
	</style>
	<g id="Layer">
		<g id="Layer">
			<path id="Layer" fill-rule="evenodd" class="shp0" d="M290.82 291.62L44.99 291.62C20.18 291.62 0 271.43 0 246.63L0 89.17C0 64.36 20.18 44.18 44.99 44.18L290.81 44.18C315.61 44.18 335.8 64.36 335.8 89.17L335.8 246.63C335.81 271.43 315.62 291.62 290.82 291.62ZM44.99 57.03C27.26 57.03 12.85 71.44 12.85 89.17L12.85 246.63C12.85 264.35 27.26 278.77 44.99 278.77L290.81 278.77C308.53 278.77 322.95 264.35 322.95 246.63L322.95 89.17C322.95 71.44 308.53 57.03 290.81 57.03C290.81 57.03 44.99 57.03 44.99 57.03ZM231.75 81.97C239.62 81.97 246.76 85.1 251.99 90.19C246.56 95.46 243.19 102.84 243.19 111.01C243.19 119.18 246.56 126.56 251.99 131.83C246.76 136.92 239.62 140.05 231.75 140.05C215.7 140.05 202.71 127.05 202.71 111.01C202.71 94.97 215.71 81.97 231.75 81.97ZM251.99 90.19C257.22 85.1 264.36 81.97 272.23 81.97C288.26 81.97 301.27 94.97 301.27 111.01C301.27 127.05 288.27 140.05 272.23 140.05C264.35 140.05 257.22 136.92 251.99 131.83C257.41 126.56 260.78 119.18 260.78 111.01C260.78 102.84 257.41 95.46 251.99 90.19ZM34.54 216.65L88.07 216.65L88.07 235.93L34.54 235.93L34.54 216.65ZM105.61 216.65L159.14 216.65L159.14 235.93L105.61 235.93L105.61 216.65ZM176.65 216.65L230.2 216.65L230.2 235.93L176.65 235.93L176.65 216.65ZM247.72 216.65L301.26 216.65L301.26 235.93L247.72 235.93L247.72 216.65ZM34.54 81.98L135.74 81.98L135.74 101.26L34.54 101.26L34.54 81.98ZM34.54 120.24L88.09 120.24L88.09 139.52L34.54 139.52L34.54 120.24Z" />
		</g>
	</g>
</svg>