<svg xmlns="http://www.w3.org/2000/svg" viewBox="0 0 438 438" width="44" height="44">
	<style>
		tspan { white-space:pre }
		.shp0 { fill: #f1cdb3 } 
	</style>
	<g id="Layer">
		<g id="Layer">
			<path id="Layer" fill-rule="evenodd" class="shp0" d="M437.98 86.25L437.98 351.73C437.98 355.88 434.62 359.23 430.48 359.23L7.5 359.23C3.36 359.23 0 355.88 0 351.73L0 86.25C0 82.1 3.36 78.75 7.5 78.75L430.48 78.75C434.62 78.75 437.98 82.1 437.98 86.25ZM412.52 93.75L25.45 93.75L218.99 289.61L249.4 258.83C246.88 251.89 248.53 244.4 250.01 237.69C250.83 233.95 251.61 230.41 251.61 227.43C251.61 224.44 250.83 220.91 250.01 217.16C248.3 209.42 246.36 200.65 250.86 192.88C255.49 184.88 264.18 182.18 271.85 179.79C275.4 178.69 278.74 177.65 281.14 176.26C283.37 174.98 285.83 172.67 288.44 170.22C294.07 164.94 301.09 158.36 310.68 158.36C320.27 158.36 327.28 164.94 332.92 170.22C333.64 170.89 334.34 171.55 335.03 172.18L412.52 93.75ZM354.75 227.42C354.75 222.8 355.74 218.29 356.71 213.93C357.88 208.61 359.09 203.12 357.51 200.39C355.82 197.46 350.35 195.76 345.05 194.11C340.88 192.82 336.56 191.47 332.71 189.25C328.99 187.09 325.77 184.08 322.66 181.16C318.38 177.15 314.34 173.36 310.68 173.36C307.02 173.36 302.98 177.15 298.7 181.16C295.59 184.08 292.37 187.09 288.65 189.25C284.8 191.47 280.49 192.82 276.31 194.11C271.01 195.76 265.54 197.46 263.85 200.39C262.27 203.12 263.48 208.61 264.65 213.93C265.62 218.29 266.61 222.81 266.61 227.43C266.61 232.05 265.62 236.56 264.65 240.92C263.48 246.24 262.27 251.74 263.85 254.46C265.54 257.39 271.01 259.09 276.31 260.74C280.49 262.04 284.8 263.38 288.65 265.61C292.37 267.76 295.59 270.77 298.7 273.69C302.98 277.7 307.02 281.5 310.68 281.5C314.34 281.5 318.38 277.7 322.66 273.69C325.77 270.77 328.99 267.76 332.71 265.61C336.56 263.38 340.88 262.04 345.05 260.74C350.35 259.09 355.82 257.39 357.52 254.46C359.09 251.74 357.88 246.24 356.71 240.92C355.74 236.56 354.75 232.04 354.75 227.42ZM15 104.51L15 333.47L128.12 218.99L15 104.51ZM25.45 344.23L412.52 344.23L345.46 276.36C343.48 277.03 341.67 277.75 340.22 278.59C337.99 279.88 335.53 282.18 332.92 284.63C327.28 289.92 320.27 296.49 310.68 296.49C301.09 296.49 294.08 289.92 288.44 284.63C285.83 282.19 283.37 279.88 281.14 278.59C278.75 277.2 275.4 276.16 271.86 275.06C267.71 273.77 263.27 272.38 259.33 270.12L224.32 305.55C222.91 306.98 220.99 307.78 218.98 307.78C216.98 307.78 215.06 306.98 213.65 305.55L138.66 229.66L25.45 344.23ZM422.98 333.47L422.98 104.5L348.81 179.57C349.04 179.65 349.27 179.72 349.5 179.79C357.18 182.18 365.87 184.88 370.5 192.88C375 200.66 373.06 209.43 371.35 217.16C370.53 220.91 369.75 224.44 369.75 227.43C369.75 230.41 370.53 233.95 371.35 237.69C373.06 245.43 375 254.2 370.5 261.98C368.15 266.04 364.75 268.73 360.96 270.71L422.98 333.47Z" />
			<path id="Layer" fill-rule="evenodd" class="shp0" d="M348.87 227.43C348.87 248.48 331.74 265.61 310.68 265.61C289.62 265.61 272.49 248.48 272.49 227.43C272.49 206.37 289.62 189.24 310.68 189.24C331.74 189.24 348.87 206.37 348.87 227.43ZM333.87 227.43C333.87 214.64 323.46 204.24 310.68 204.24C297.9 204.24 287.49 214.64 287.49 227.43C287.49 240.21 297.9 250.61 310.68 250.61C323.46 250.61 333.87 240.21 333.87 227.43Z" />
		</g>
	</g>
</svg>