<svg xmlns="http://www.w3.org/2000/svg" viewBox="0 0 512 512" width="30" height="30">
	<style>
		tspan { white-space:pre }
		.shp0 { fill: #f1cdb3 } 
	</style>
	<g id="Layer">
		<g id="Layer">
			<g id="Layer">
				<g id="Layer">
					<path id="Layer" fill-rule="evenodd" class="shp0" d="M426.67 170.67C426.67 198.92 419.6 226.93 406.23 251.69L265.33 506.5C263.46 509.9 259.88 512 256 512C252.12 512 248.54 509.9 246.67 506.5L105.82 251.77C92.4 226.93 85.33 198.92 85.33 170.67C85.33 76.56 161.9 0 256 0C350.1 0 426.67 76.56 426.67 170.67ZM405.33 170.67C405.33 88.32 338.34 21.33 256 21.33C173.66 21.33 106.67 88.32 106.67 170.67C106.67 195.39 112.84 219.9 124.54 241.54L256 479.29L387.51 241.45C399.16 219.9 405.33 195.38 405.33 170.67Z" />
					<path id="Layer" fill-rule="evenodd" class="shp0" d="M341.33 170.67C341.33 217.72 303.05 256 256 256C208.95 256 170.67 217.72 170.67 170.67C170.67 123.61 208.95 85.33 256 85.33C303.05 85.33 341.33 123.61 341.33 170.67ZM320 170.67C320 135.38 291.29 106.67 256 106.67C220.71 106.67 192 135.38 192 170.67C192 205.96 220.71 234.67 256 234.67C291.29 234.67 320 205.96 320 170.67Z" />
				</g>
			</g>
		</g>
	</g>
</svg>