<svg xmlns="http://www.w3.org/2000/svg" viewBox="0 0 428 428" width="44" height="44">
	<style>
		tspan { white-space:pre }
		.shp0 { fill: #f1cdb3 } 
	</style>
	<g id="Layer">
		<g id="Layer">
			<path id="Layer" fill-rule="evenodd" class="shp0" d="M427.49 145.2L417.06 174.38C415.98 177.41 413.12 179.36 410 179.36C409.51 179.36 409.02 179.31 408.53 179.22L309.5 159.41C306.45 158.8 304.1 156.37 303.58 153.31L295 102.52C247.8 90.66 180.12 90.66 132.92 102.52L124.34 153.3C123.82 156.37 121.47 158.8 118.42 159.41L19.39 179.21C15.74 179.94 12.11 177.89 10.86 174.38L0.44 145.2C-0.19 143.44 -0.14 141.51 0.58 139.79L26.64 77.25C27.54 75.08 29.41 73.46 31.68 72.87L63 64.75C154.7 40.98 273.22 40.97 364.92 64.75L396.24 72.87C398.52 73.46 400.38 75.08 401.29 77.25L427.35 139.79C428.06 141.51 428.11 143.44 427.49 145.2ZM110.41 145.71L113.37 128.21L17.46 148.25L22.81 163.24L110.41 145.71ZM303.59 89.27C306.4 90.05 308.5 92.38 308.99 95.25L311.87 112.32L408.03 132.42L388.87 86.46L361.16 79.27C271.74 56.09 156.18 56.09 66.77 79.27L39.05 86.46L19.9 132.42L116.05 112.32L118.93 95.25C119.42 92.38 121.52 90.05 124.33 89.27C175.43 75.17 252.49 75.17 303.59 89.27ZM410.46 148.25L314.55 128.21L317.51 145.71L405.11 163.24L410.46 148.25Z" />
			<path id="Layer" fill-rule="evenodd" class="shp0" d="M390.82 340.16C390.94 340.69 391 341.24 391 341.78L391 373.5C391 377.64 387.64 381 383.5 381L44.42 381C40.28 381 36.92 377.64 36.92 373.5L36.92 341.78C36.92 341.24 36.98 340.69 37.1 340.16L71.78 183.88C72.42 181.01 74.67 178.78 77.54 178.17L128.62 167.25L135.05 125.36C135.61 121.7 138.76 119 142.46 119L162.46 119L162.46 109.18C162.46 105.04 165.82 101.68 169.96 101.68C174.1 101.68 177.46 105.04 177.46 109.18L177.46 119L250.46 119L250.46 109.18C250.46 105.04 253.82 101.68 257.96 101.68C262.1 101.68 265.46 105.04 265.46 109.18L265.46 119L285.46 119C289.16 119 292.31 121.7 292.87 125.36L299.31 167.25L350.38 178.17C353.25 178.78 355.5 181.01 356.14 183.88L390.82 340.16ZM53.77 334.28L374.15 334.28L342.54 191.83L291.11 180.84C288.06 180.19 285.74 177.72 285.26 174.64L279.03 134L148.9 134L142.66 174.64C142.19 177.72 139.86 180.19 136.81 180.84L85.38 191.83L53.77 334.28ZM114.8 349.28L105.14 366L116.54 366L126.2 349.28L114.8 349.28ZM133.86 366L297.07 366L306.74 349.28L143.53 349.28L133.86 366ZM51.92 366L87.81 366L97.47 349.28L51.92 349.28L51.92 366ZM376 366L376 349.28L324.06 349.28L314.4 366L376 366Z" />
			<path id="Layer" fill-rule="evenodd" class="shp0" d="M133.46 239.54C133.46 195.15 169.57 159.04 213.96 159.04C258.35 159.04 294.46 195.15 294.46 239.54C294.46 283.93 258.35 320.04 213.96 320.04C169.57 320.04 133.46 283.93 133.46 239.54ZM148.46 239.54C148.46 275.66 177.84 305.04 213.96 305.04C250.08 305.04 279.46 275.65 279.46 239.54C279.46 203.42 250.08 174.04 213.96 174.04C177.84 174.04 148.46 203.42 148.46 239.54Z" />
			<path id="Layer" fill-rule="evenodd" class="shp0" d="M185.41 239.54C185.41 223.79 198.22 210.98 213.96 210.98C229.71 210.98 242.52 223.79 242.52 239.54C242.52 255.28 229.71 268.09 213.96 268.09C198.22 268.09 185.41 255.28 185.41 239.54ZM200.41 239.54C200.41 247.01 206.49 253.09 213.96 253.09C221.44 253.09 227.52 247.01 227.52 239.54C227.52 232.06 221.44 225.98 213.96 225.98C206.49 225.98 200.41 232.06 200.41 239.54Z" />
		</g>
	</g>
</svg>